<svg width="900" height="1200" viewBox="0 0 900 1200" fill="none" xmlns="http://www.w3.org/2000/svg">
  <defs>
    <linearGradient id="bg" x1="0" y1="0" x2="0" y2="1200" gradientUnits="userSpaceOnUse">
      <stop stop-color="#29B35D"/>
      <stop offset="0.4" stop-color="#128E4B"/>
      <stop offset="1" stop-color="#0A5E39"/>
    </linearGradient>
    <linearGradient id="jersey" x1="0" y1="0" x2="1" y2="1">
      <stop stop-color="#F9FBF8"/>
      <stop offset="1" stop-color="#DCEAE6"/>
    </linearGradient>
    <linearGradient id="gold" x1="0" y1="0" x2="1" y2="1">
      <stop stop-color="#F5E7A8"/>
      <stop offset="1" stop-color="#D8A63A"/>
    </linearGradient>
  </defs>

  <rect width="900" height="1200" fill="url(#bg)"/>
  <ellipse cx="445" cy="1010" rx="280" ry="120" fill="#0B5C36" opacity="0.32"/>
  <ellipse cx="455" cy="260" rx="290" ry="240" fill="#35C166" opacity="0.2"/>

  <g>
    <g transform="translate(185 70)">
      <ellipse cx="215" cy="230" rx="110" ry="125" fill="#F2C6A2"/>
      <path d="M145 316C170 292 192 282 215 282C238 282 260 292 287 316L310 430H120L145 316Z" fill="#F1C7A1"/>
      <path d="M107 350C72 312 52 307 20 320L0 380C39 407 72 416 109 407L134 412L173 512L120 564H70L42 510L107 350Z" fill="#F1C7A1"/>
      <path d="M325 350C360 312 380 307 412 320L432 380C393 407 360 416 323 407L298 412L259 512L312 564H362L390 510L325 350Z" fill="#F1C7A1"/>
      <path d="M160 390H270L323 594H109L160 390Z" fill="url(#jersey)"/>
      <path d="M160 390H270L226 616H204L160 390Z" fill="#EDF2F1"/>
      <path d="M270 390H323L320 606H232L270 390Z" fill="#E2ECEA"/>
      <path d="M110 410L78 604L111 620L155 496L172 408L110 410Z" fill="#ECF3F0"/>
      <path d="M323 410L355 604L322 620L278 496L261 408L323 410Z" fill="#ECF3F0"/>
      <path d="M154 380H240L216 450H178L154 380Z" fill="#1F7B50" opacity="0.15"/>
      <path d="M175 175C190 162 206 156 222 156C238 156 255 162 269 175L279 202H165L175 175Z" fill="#DCC399"/>
      <path d="M165 202H279L307 328H137L165 202Z" fill="#E2B98D" opacity="0.88"/>
      <path d="M135 264L170 332H182L146 219L135 264Z" fill="#E7B68B"/>
      <path d="M304 264L269 332H257L293 219L304 264Z" fill="#E7B68B"/>
      <path d="M178 212H270L295 328H153L178 212Z" fill="#F0C7A1"/>
      <path d="M188 238L196 296H247L255 238H188Z" fill="#E7B48B"/>
      <circle cx="192" cy="237" r="7" fill="#1C1C1C"/>
      <circle cx="253" cy="237" r="7" fill="#1C1C1C"/>
      <path d="M189 265C204 282 223 289 244 289C262 289 277 282 292 265" stroke="#C8755A" stroke-width="8" stroke-linecap="round"/>
      <path d="M148 228C172 214 195 206 217 206C241 206 265 214 289 228" stroke="#D6A56A" stroke-width="10" stroke-linecap="round" opacity="0.8"/>
      <path d="M188 172C197 179 219 182 231 172" stroke="#DCA66E" stroke-width="8" stroke-linecap="round"/>
      <path d="M118 440L195 520H162L94 450L118 440Z" fill="#F0F5F3"/>
      <path d="M312 440L235 520H268L336 450L312 440Z" fill="#F0F5F3"/>
      <path d="M194 531L212 758H248L260 531H194Z" fill="#EEF4F2"/>
      <path d="M158 536H192L173 803H122L158 536Z" fill="#E9F0EE"/>
      <path d="M262 536H298L317 803H266L262 536Z" fill="#E9F0EE"/>
      <path d="M118 626L78 804L111 818L177 704L190 612L118 626Z" fill="#EDF1EE"/>
      <path d="M332 626L372 804L339 818L273 704L260 612L332 626Z" fill="#EDF1EE"/>
    </g>

    <g transform="translate(630 140)">
      <circle cx="90" cy="92" r="88" fill="#0EA859" stroke="#F2F6F8" stroke-width="10"/>
      <circle cx="90" cy="92" r="60" fill="url(#gold)"/>
      <path d="M90 45L104 75L139 79L112 104L119 140L90 121L61 140L68 104L41 79L76 75L90 45Z" fill="#FFF9E2"/>
    </g>

    <g>
      <rect x="150" y="820" width="600" height="240" rx="18" fill="rgba(9,56,32,0.30)" stroke="rgba(255,255,255,0.14)"/>
      <text x="180" y="886" fill="#F6FDF8" font-family="Arial, Helvetica, sans-serif" font-size="58" font-weight="700" letter-spacing="8">PLAYER</text>
      <text x="470" y="965" fill="#F6FDF8" font-family="Arial, Helvetica, sans-serif" font-size="102" font-weight="900" letter-spacing="-4">NO.6</text>
    </g>

    <g fill="#F4FAF7" font-family="Arial, Helvetica, sans-serif">
      <text x="180" y="1026" font-size="30" font-weight="700">ชื่อจริง : วรากร ข้างเขินดี</text>
      <text x="180" y="1068" font-size="30" font-weight="700">ตำแหน่ง : กองกลาง</text>
      <text x="180" y="1110" font-size="30" font-weight="700">ความสูง : 1.76 ม.</text>
    </g>
  </g>
</svg>
